<svg xmlns="http://www.w3.org/2000/svg" width="480" height="480" viewBox="0 0 480 480" aria-label="FlashEFC mark">
  <circle cx="240" cy="240" r="218" fill="none" stroke="#1F3A2B" stroke-width="8"/>
  <circle cx="240" cy="240" r="200" fill="none" stroke="#A8895C" stroke-width="2"/>
  <circle cx="240" cy="240" r="192" fill="#FBF6E9"/>
  <g stroke="#1F3A2B" stroke-width="3" stroke-linecap="round">
    <line x1="240" y1="56" x2="240" y2="76"/>
    <line x1="240" y1="404" x2="240" y2="424"/>
    <line x1="56" y1="240" x2="76" y2="240"/>
    <line x1="404" y1="240" x2="424" y2="240"/>
  </g>
  <g stroke="#A8895C" stroke-width="2" stroke-linecap="round">
    <line x1="110" y1="110" x2="124" y2="124"/>
    <line x1="370" y1="110" x2="356" y2="124"/>
    <line x1="110" y1="370" x2="124" y2="356"/>
    <line x1="370" y1="370" x2="356" y2="356"/>
  </g>
  <g transform="translate(240 240)">
    <path d="M 0 -160 L 18 0 L 0 160 L -18 0 Z" fill="#1F3A2B"/>
    <path d="M -160 0 L 0 -18 L 160 0 L 0 18 Z" fill="#1F3A2B"/>
    <path d="M 0 -160 L 8 0 L 0 0 Z" fill="#2d5240"/>
    <path d="M 160 0 L 0 8 L 0 0 Z" fill="#2d5240"/>
    <path d="M -100 -100 L -8 -8 L 0 0 Z" fill="#A8895C" opacity="0.85"/>
    <path d="M 100 -100 L 8 -8 L 0 0 Z" fill="#A8895C" opacity="0.85"/>
    <path d="M -100 100 L -8 8 L 0 0 Z" fill="#A8895C" opacity="0.85"/>
    <path d="M 100 100 L 8 8 L 0 0 Z" fill="#A8895C" opacity="0.85"/>
  </g>
  <circle cx="240" cy="240" r="52" fill="#7A1F2B"/>
  <circle cx="240" cy="240" r="52" fill="none" stroke="#A8895C" stroke-width="1.5"/>
  <circle cx="240" cy="240" r="48" fill="none" stroke="#A8895C" stroke-width="0.8" opacity="0.6"/>
  <text x="234" y="259" text-anchor="end"
        font-family="Fraunces, serif" font-size="56" font-weight="600"
        font-variation-settings="'SOFT' 100, 'opsz' 144"
        fill="#F1EBD9">F</text>
  <line x1="240" y1="221" x2="240" y2="258"
        stroke="#A8895C" stroke-width="2.5" stroke-linecap="round"/>
  <text x="246" y="259" text-anchor="start"
        font-family="Fraunces, serif" font-size="56" font-weight="600"
        font-variation-settings="'SOFT' 100, 'opsz' 144"
        fill="#F1EBD9">E</text>
</svg>
